<?xml version="1.0" encoding="UTF-8"?>
<svg version="1.1" xmlns="http://www.w3.org/2000/svg" xmlns:xlink="http://www.w3.org/1999/xlink" viewBox="0 0 512 512">
  <!-- 背景圆形 -->
  <circle cx="256" cy="256" r="250" fill="#2c3e50"/>
  
  <!-- 点云效果 - 随机点 -->
  <g id="point-cloud">
    <!-- 大点 -->
    <circle cx="170" cy="180" r="6" fill="#3498db" opacity="0.9"/>
    <circle cx="210" cy="150" r="5" fill="#2980b9" opacity="0.9"/>
    <circle cx="250" cy="190" r="7" fill="#3498db" opacity="0.9"/>
    <circle cx="290" cy="170" r="6" fill="#2980b9" opacity="0.9"/>
    <circle cx="330" cy="200" r="5" fill="#3498db" opacity="0.9"/>
    
    <circle cx="180" cy="220" r="7" fill="#2980b9" opacity="0.9"/>
    <circle cx="220" cy="250" r="6" fill="#3498db" opacity="0.9"/>
    <circle cx="260" cy="230" r="5" fill="#2980b9" opacity="0.9"/>
    <circle cx="300" cy="260" r="7" fill="#3498db" opacity="0.9"/>
    <circle cx="340" cy="240" r="6" fill="#2980b9" opacity="0.9"/>
    
    <circle cx="160" cy="280" r="5" fill="#3498db" opacity="0.9"/>
    <circle cx="200" cy="310" r="7" fill="#2980b9" opacity="0.9"/>
    <circle cx="240" cy="290" r="6" fill="#3498db" opacity="0.9"/>
    <circle cx="280" cy="320" r="5" fill="#2980b9" opacity="0.9"/>
    <circle cx="320" cy="300" r="7" fill="#3498db" opacity="0.9"/>
    
    <!-- 小点 -->
    <circle cx="185" cy="165" r="3" fill="#e74c3c" opacity="0.8"/>
    <circle cx="225" cy="195" r="2" fill="#c0392b" opacity="0.8"/>
    <circle cx="265" cy="175" r="3" fill="#e74c3c" opacity="0.8"/>
    <circle cx="305" cy="205" r="2" fill="#c0392b" opacity="0.8"/>
    <circle cx="345" cy="185" r="3" fill="#e74c3c" opacity="0.8"/>
    
    <circle cx="175" cy="235" r="2" fill="#c0392b" opacity="0.8"/>
    <circle cx="215" cy="215" r="3" fill="#e74c3c" opacity="0.8"/>
    <circle cx="255" cy="245" r="2" fill="#c0392b" opacity="0.8"/>
    <circle cx="295" cy="225" r="3" fill="#e74c3c" opacity="0.8"/>
    <circle cx="335" cy="255" r="2" fill="#c0392b" opacity="0.8"/>
    
    <circle cx="190" cy="275" r="3" fill="#e74c3c" opacity="0.8"/>
    <circle cx="230" cy="305" r="2" fill="#c0392b" opacity="0.8"/>
    <circle cx="270" cy="285" r="3" fill="#e74c3c" opacity="0.8"/>
    <circle cx="310" cy="315" r="2" fill="#c0392b" opacity="0.8"/>
    <circle cx="350" cy="295" r="3" fill="#e74c3c" opacity="0.8"/>
  </g>
  
  <!-- 压缩效果 - 箭头 -->
  <g id="compression">
    <path d="M150,350 L362,350" stroke="#f1c40f" stroke-width="8" fill="none"/>
    <path d="M362,350 L332,330" stroke="#f1c40f" stroke-width="8" fill="none"/>
    <path d="M362,350 L332,370" stroke="#f1c40f" stroke-width="8" fill="none"/>
    
    <path d="M150,380 L362,380" stroke="#f39c12" stroke-width="8" fill="none"/>
    <path d="M150,380 L180,360" stroke="#f39c12" stroke-width="8" fill="none"/>
    <path d="M150,380 L180,400" stroke="#f39c12" stroke-width="8" fill="none"/>
  </g>
</svg>